# Blender 4.1.1
# www.blender.org
mtllib gran.mtl
o low-poly-pinetree
v 0.178099 -0.062466 -0.210576
v -0.060364 -0.062466 -0.265003
v -0.251595 -0.062465 -0.112501
v -0.251595 -0.062465 0.132093
v -0.060364 -0.062465 0.284596
v 0.178099 -0.062465 0.230168
v 0.284225 -0.062465 0.009796
v 0.101167 0.419349 -0.105784
v -0.023901 0.419349 -0.134330
v -0.124198 0.419349 -0.054346
v -0.124198 0.419349 0.073938
v -0.023901 0.419349 0.153922
v 0.101167 0.419349 0.125376
v 0.156827 0.419349 0.009796
v 0.090037 0.703570 -0.090519
v -0.018626 0.703570 -0.115321
v -0.105767 0.703570 -0.045828
v -0.105767 0.703570 0.065630
v -0.019403 0.703570 0.135300
v 0.090815 0.703570 0.110144
v 0.138396 0.703570 0.009901
v 0.595786 2.328932 -0.522987
v 0.049724 2.381936 -0.743672
v -0.496338 2.230208 -0.522987
v -0.722524 2.312128 0.009796
v -0.496338 2.230208 0.542579
v 0.049724 2.381936 0.763265
v 0.595786 2.328932 0.542579
v 0.821972 2.451744 0.009796
v -0.081619 3.834907 0.009796
v 0.677827 1.594009 -0.636038
v 0.013213 1.441249 -0.903551
v -0.651400 1.584750 -0.636038
v -0.926692 1.434702 0.009796
v -0.651401 1.584750 0.655630
v 0.013213 1.441249 0.923143
v 0.677827 1.594009 0.655630
v 0.953119 1.447796 0.009796
v -0.000490 3.556566 0.009796
v 0.815385 0.713464 -0.789330
v -0.005979 0.891662 -1.120338
v -0.827342 0.795360 -0.789330
v -1.167562 0.913833 0.009796
v -0.827342 0.795360 0.808922
v -0.005979 0.938259 1.139931
v 0.815385 0.713464 0.808922
v 1.155605 0.798015 0.009796
v 0.107921 3.140615 0.009796
v 0.695693 0.500822 -0.703342
v -0.035624 0.462976 -0.998733
v -0.766941 0.623699 -0.703342
v -1.069862 0.549863 0.009796
v -0.766941 0.623699 0.722934
v -0.035624 0.462976 1.018326
v 0.695693 0.500822 0.722934
v 0.998615 0.376089 0.009796
v 0.159204 2.881342 0.009796
v 0.398365 3.032175 -0.372590
v 0.007122 2.976084 -0.530980
v -0.384121 3.116627 -0.372590
v -0.546180 3.035801 0.009796
v -0.384121 3.116628 0.392182
v 0.007122 2.976084 0.550572
v 0.398365 3.032175 0.392182
v 0.560422 2.916367 0.009796
v 0.141025 4.315074 0.009796
vn 0.2160 0.2403 -0.9464
vn 0.2182 0.1960 -0.9560
vn 0.2182 0.1954 -0.9561
vn -0.6035 0.2509 -0.7568
vn -0.6103 0.2048 -0.7653
vn -0.6103 0.2043 -0.7653
vn -0.9668 0.2556 -0.0000
vn -0.9781 0.2084 -0.0000
vn -0.9780 0.2084 -0.0000
vn -0.6035 0.2509 0.7568
vn -0.6109 0.2039 0.7650
vn -0.6108 0.2045 0.7649
vn 0.2160 0.2403 0.9464
vn 0.2183 0.1949 0.9562
vn 0.2182 0.1956 0.9561
vn 0.8764 0.2317 0.4221
vn 0.8849 0.1881 0.4260
vn 0.8851 0.1884 0.4255
vn 0.8764 0.2317 -0.4221
vn 0.8848 0.1887 -0.4261
vn 0.8848 0.1884 -0.4261
vn 0.2221 0.0610 -0.9731
vn -0.6222 0.0637 -0.7802
vn -0.9979 0.0647 -0.0000
vn -0.6243 0.0621 0.7787
vn 0.2221 0.0602 0.9732
vn 0.9006 0.0571 0.4308
vn 0.8994 0.0585 -0.4331
vn 0.0900 -0.9959 -0.0000
vn 0.3714 0.4537 -0.8101
vn -0.4356 0.3830 -0.8146
vn -0.8402 0.3536 -0.4111
vn -0.8402 0.3536 0.4111
vn -0.4356 0.3830 0.8146
vn 0.3714 0.4537 0.8101
vn 0.7543 0.4928 0.4338
vn 0.7543 0.4928 -0.4338
vn 0.0070 -1.0000 -0.0000
vn 0.2677 0.3834 -0.8839
vn -0.2737 0.3798 -0.8837
vn -0.8784 0.3834 -0.2853
vn -0.8784 0.3834 0.2853
vn -0.2737 0.3798 0.8837
vn 0.2677 0.3834 0.8839
vn 0.8739 0.3952 0.2830
vn 0.8739 0.3952 -0.2830
vn -0.0498 -0.9987 0.0103
vn 0.4158 0.3915 -0.8209
vn -0.3803 0.4306 -0.8185
vn -0.7933 0.4544 -0.4051
vn -0.7933 0.4544 0.4051
vn -0.4007 0.4346 0.8066
vn 0.4342 0.3934 0.8104
vn 0.8381 0.3748 0.3965
vn 0.8381 0.3748 -0.3965
vn -0.0837 -0.9965 -0.0000
vn 0.3372 0.3391 -0.8782
vn -0.2702 0.3890 -0.8807
vn -0.8407 0.4432 -0.3112
vn -0.8407 0.4432 0.3112
vn -0.2702 0.3890 0.8807
vn 0.3372 0.3391 0.8782
vn 0.8957 0.3001 0.3280
vn 0.8957 0.3001 -0.3280
vn -0.1073 -0.9942 -0.0000
vn 0.3136 0.3285 -0.8909
vn -0.2246 0.3841 -0.8955
vn -0.8498 0.4565 -0.2637
vn -0.8498 0.4565 0.2637
vn -0.2246 0.3841 0.8955
vn 0.3136 0.3285 0.8909
vn 0.9126 0.2736 0.3039
vn 0.9126 0.2736 -0.3039
vt 0.016071 0.010714
vt 0.058708 0.010714
vt 0.058708 0.459516
vt 0.016071 0.459516
vt 0.101344 0.010714
vt 0.101344 0.459516
vt 0.143980 0.010714
vt 0.143980 0.459516
vt 0.186616 0.010714
vt 0.186616 0.459516
vt 0.229252 0.010714
vt 0.229252 0.459516
vt 0.271888 0.010714
vt 0.271888 0.459516
vt 0.314524 0.010714
vt 0.314524 0.459516
vt 0.551864 0.744982
vt 0.425388 0.767084
vt 0.447031 0.688943
vt 0.504465 0.679671
vt 0.327696 0.681576
vt 0.404582 0.649976
vt 0.337164 0.552022
vt 0.407113 0.592450
vt 0.443103 0.478554
vt 0.454057 0.558629
vt 0.565661 0.515098
vt 0.510707 0.574862
vt 0.612058 0.633242
vt 0.533557 0.628683
vt 0.902142 0.037874
vt 0.928140 0.100638
vt 0.902142 0.163402
vt 0.839378 0.189400
vt 0.776614 0.163402
vt 0.750616 0.100638
vt 0.776614 0.037874
vt 0.839378 0.011876
vt 0.337500 0.013087
vt 0.380373 0.013087
vt 0.508990 0.356068
vt 0.423245 0.013087
vt 0.466118 0.013087
vt 0.508990 0.013087
vt 0.551863 0.013087
vt 0.594736 0.013087
vt 0.637608 0.013087
vt 0.680481 0.013087
vt 0.839378 0.189399
vt 0.750617 0.100638
s 1
usemtl BrownMaterial
f 1/1/1 2/2/1 9/3/2 8/4/3
f 2/2/4 3/5/4 10/6/5 9/3/6
f 3/5/7 4/7/7 11/8/8 10/6/9
f 4/7/10 5/9/10 12/10/11 11/8/12
f 5/9/13 6/11/13 13/12/14 12/10/15
f 6/11/16 7/13/16 14/14/17 13/12/18
f 7/13/19 1/15/19 8/16/20 14/14/21
f 8/17/3 9/18/2 16/19/22 15/20/22
f 9/18/6 10/21/5 17/22/23 16/19/23
f 10/21/9 11/23/8 18/24/24 17/22/24
f 11/23/12 12/25/11 19/26/25 18/24/25
f 12/25/15 13/27/14 20/28/26 19/26/26
f 13/27/18 14/29/17 21/30/27 20/28/27
f 14/29/21 8/17/20 15/20/28 21/30/28
s 0
usemtl GreenMaterial
f 22/31/29 29/32/29 28/33/29 27/34/29 26/35/29 25/36/29 24/37/29 23/38/29
f 22/39/30 23/40/30 30/41/30
f 23/40/31 24/42/31 30/41/31
f 24/42/32 25/43/32 30/41/32
f 25/43/33 26/44/33 30/41/33
f 26/44/34 27/45/34 30/41/34
f 27/45/35 28/46/35 30/41/35
f 28/46/36 29/47/36 30/41/36
f 29/47/37 22/48/37 30/41/37
f 31/31/38 38/32/38 37/33/38 36/49/38 35/35/38 34/50/38 33/37/38 32/38/38
f 31/39/39 32/40/39 39/41/39
f 32/40/40 33/42/40 39/41/40
f 33/42/41 34/43/41 39/41/41
f 34/43/42 35/44/42 39/41/42
f 35/44/43 36/45/43 39/41/43
f 36/45/44 37/46/44 39/41/44
f 37/46/45 38/47/45 39/41/45
f 38/47/46 31/48/46 39/41/46
f 40/31/47 47/32/47 46/33/47 45/49/47 44/35/47 43/50/47 42/37/47 41/38/47
f 40/39/48 41/40/48 48/41/48
f 41/40/49 42/42/49 48/41/49
f 42/42/50 43/43/50 48/41/50
f 43/43/51 44/44/51 48/41/51
f 44/44/52 45/45/52 48/41/52
f 45/45/53 46/46/53 48/41/53
f 46/46/54 47/47/54 48/41/54
f 47/47/55 40/48/55 48/41/55
f 49/31/56 56/32/56 55/33/56 54/49/56 53/35/56 52/50/56 51/37/56 50/38/56
f 49/39/57 50/40/57 57/41/57
f 50/40/58 51/42/58 57/41/58
f 51/42/59 52/43/59 57/41/59
f 52/43/60 53/44/60 57/41/60
f 53/44/61 54/45/61 57/41/61
f 54/45/62 55/46/62 57/41/62
f 55/46/63 56/47/63 57/41/63
f 56/47/64 49/48/64 57/41/64
f 58/31/65 65/32/65 64/33/65 63/34/65 62/35/65 61/50/65 60/37/65 59/38/65
f 58/39/66 59/40/66 66/41/66
f 59/40/67 60/42/67 66/41/67
f 60/42/68 61/43/68 66/41/68
f 61/43/69 62/44/69 66/41/69
f 62/44/70 63/45/70 66/41/70
f 63/45/71 64/46/71 66/41/71
f 64/46/72 65/47/72 66/41/72
f 65/47/73 58/48/73 66/41/73
